# xmcd CD database file
#
# Track frame offsets:
#	150
#	17255
#	32194
#	48036
#	65494
#	83426
#	98866
#	114311
#	127876
#	141024
#	149494
#	159701
#	166519
#	178844
#	189896
#	197031
#	204984
#	220289
#	230894
#	243454
#	260631
#	274876
#	281785
#	294909
#
# Disc length: 4011 seconds
#
# Revision: 0
# Processed by: cddbd v1.5.2PL0 Copyright (c) Steve Scherf et al.
# Submitted via: CDex 1.51
#
DISCID=590fa918
DTITLE=The Innocence Mission - for quiet corner
DYEAR=1900
DGENRE=Jazz
TTITLE0=Gentle theRain at home
TTITLE1=Sunshine Roof
TTITLE2=Happy Birthday
TTITLE3=Glimmer - Don Peris
TTITLE4=The Leaves Lift High
TTITLE5=Brotherhood of Man
TTITLE6=Color of the World
TTITLE7=Holiday Beach - Don Peris
TTITLE8=Over the Rindbow
TTITLE9=ElectroStar - Don Peisr
TTITLE10=Edelweiss
TTITLE11=We Wake Up in the Earliest Blue of All
TTITLE12=Song for a New Day - Karen Peris
TTITLE13=After the Fair - Dons eris
TTITLE14=No Stormes Come
TTITLE15=Pascal's Evening Song - Karen Pris
TTITLE16=Satay Awake
TTITLE17=PennyLand - Don Peris
TTITLE18=Moon River
TTITLE19=When Mac Was Swimmgin
TTITLE20=I hve loved you
TTITLE21=Landscape with Birds - Karen Peris
TTITLE22=Whats a Wonderul World
TTITLE23=It is Well with my Soul
EXTD=
EXTT0=
EXTT1=
EXTT2=
EXTT3=
EXTT4=
EXTT5=
EXTT6=
EXTT7=
EXTT8=
EXTT9=
EXTT10=
EXTT11=
EXTT12=
EXTT13=
EXTT14=
EXTT15=
EXTT16=
EXTT17=
EXTT18=
EXTT19=
EXTT20=
EXTT21=
EXTT22=
EXTT23=
PLAYORDER=
